<?xml version="1.0" encoding="utf-8"?>
<svg version="1.0" xmlns="http://www.w3.org/2000/svg" width="45px" height="45px" viewBox="33.7 27.709 157.61 161.11"
    preserveAspectRatio="xMidYMid meet" xmlns:bx="https://boxy-svg.com">
    <defs>
        <bx:export>
            <bx:file format="svg" units="pt" />
        </bx:export>
    </defs>
    <g transform="translate(0.000000,235.000000) scale(0.100000,-0.100000)" fill="#fff" stroke="none">
        <path
            d="M 834 2013 C 838 1986 843 1946 847 1923 C 853 1877 853 1876 789 1866 C 770 1862 745 1854 735 1846 C 717 1833 718 1828 751 1702 C 783 1578 784 1570 767 1558 C 757 1551 688 1514 613 1475 C 414 1373 360 1312 360 1191 C 360 1128 398 1025 498 818 C 628 549 658.49 535.275 796.541 510.653 C 872.447 497.115 926 531 1064 593 L 1212 661 L 1264 621 C 1292 599 1328 568 1344 551 C 1365 529 1383 520 1407 520 C 1455 520 1464 544 1456 659 C 1452 712 1453 760 1457 766 C 1462 773 1526 807 1600 843 C 1757 920 1831 979 1866 1054 C 1897 1121 1896 1165 1860 1258 C 1808 1393 1654 1696 1615 1739 C 1573 1785 1492 1820 1426 1820 C 1371 1820 1304 1797 1140 1720 C 1067 1686 1004 1662 1000 1667 C 977 1693 942 1755 946 1762 C 949 1766 967 1777 986 1785 C 1008 1794 1020 1806 1020 1818 C 1020 1848 860 2060 838 2060 C 831 2060 830 2043 834 2013 Z M 1504 1726 C 1549 1707 1576 1669 1659 1503 C 1759 1302 1802 1195 1802 1144 C 1802 1090 1778 1040 1738 1010 C 1679 966 893.92 586.94 893.92 586.94 C 893.92 586.94 819.544 563.24 781.184 576.143 C 751.514 586.123 699.631 629.594 688 642 C 661 671 550 889 484 1043 C 439 1146 433 1189 454 1243 C 473 1295 506 1326 580 1367 C 644 1402 1311 1713 1355 1728 C 1398 1743 1465 1742 1504 1726 Z" />
        <ellipse style="stroke: rgb(0, 0, 0);"
            transform="matrix(0.905031, 0.425346, 0.425346, -0.905031, -144.592875, -1119.25337)" cx="1871.117"
            cy="-1724.69" rx="40.423" ry="40.423" />
        <rect x="1992.385" y="-1750.93" width="382.953" height="45.387" style="stroke: rgb(0, 0, 0);"
            transform="matrix(0.905031, 0.425346, 0.425346, -0.905031, -124.590154, -1111.08855)" />
        <ellipse style="stroke: rgb(0, 0, 0);"
            transform="matrix(0.905031, 0.425346, 0.425346, -0.905031, -60.750157, -1287.917801)" cx="1871.117"
            cy="-1724.69" rx="40.423" ry="40.423" />
        <rect x="1992.385" y="-1750.93" width="382.953" height="45.387" style="stroke: rgb(0, 0, 0);"
            transform="matrix(0.905031, 0.425346, 0.425346, -0.905031, -40.747746, -1279.753592)" />
        <ellipse style="stroke: rgb(0, 0, 0);"
            transform="matrix(0.905031, 0.425346, 0.425346, -0.905031, 24.350409, -1460.955646)" cx="1871.117"
            cy="-1724.69" rx="40.423" ry="40.423" />
        <rect x="1992.385" y="-1750.93" width="382.953" height="45.387" style="stroke: rgb(0, 0, 0);"
            transform="matrix(0.905031, 0.425346, 0.425346, -0.905031, 44.352842, -1452.791436)" />
    </g>
</svg>