<?xml version="1.0" encoding="utf-8"?>
<svg xmlns="http://www.w3.org/2000/svg" viewBox="5.6 5.1944 104.5718 104.5181" width="40px" height="40px" fill="#fff"
    preserveAspectRatio="none">
    <path
        d="M 465 1075 C 228 1024 56 809 56 565 C 56 249 338 4 650 48 C 1078 109 1252 623 950 931 C 822 1062 645 1115 465 1075 Z M 685 1006 C 756 987 835 945 885 899 C 927 860 987 783 979 776 C 977 774 925 750 865 721 L 754 669 L 713 708 C 628 789 513 784 432 696 C 389 649 372 589 383 530 C 389 502 387 500 278 448 C 217 419 164 395 162 395 C 147 395 131 478 131 563 C 130 652 133 669 161 737 C 248 944 477 1062 685 1006 Z M 1017 684 C 1024 657 1030 603 1030 564 C 1031 234 684 14 384 156 C 295 198 160 337 186 359 C 191 363 239 386 293 410 C 347 434 393 457 396 461 C 399 466 417 452 436 430 C 514 344 630 342 716 424 C 764 471 785 530 776 594 L 770 635 L 817 654 C 844 665 892 688 925 705 C 958 723 989 736 995 735 C 1000 734 1010 711 1017 684 Z M 678 684 C 745 627 755 543 703 472 C 671 430 631 410 576 410 C 523 410 481 432 451 476 C 377 584 448 718 581 719 C 630 720 641 716 678 684 Z"
        id="object-0" transform="matrix(0.1000000014901161, 0, 0, -0.1000000014901161, 0, 114.00000762939452)" />
</svg>